<svg width="33" height="32" viewBox="0 0 33 32" fill="none" xmlns="http://www.w3.org/2000/svg">
<path d="M10.7441 24C11.8487 24 12.7441 24.8954 12.7441 26C12.7441 27.1046 11.8487 28 10.7441 28C9.63957 28 8.74414 27.1046 8.74414 26C8.74414 24.8954 9.63957 24 10.7441 24Z" stroke="#1A90B0" stroke-width="1.5"/>
<path d="M22.7441 24.0001C23.8487 24.0001 24.7441 24.8955 24.7441 26.0001C24.7441 27.1047 23.8487 28.0001 22.7441 28.0001C21.6396 28.0001 20.7441 27.1047 20.7441 26.0001C20.7441 24.8955 21.6396 24.0001 22.7441 24.0001Z" stroke="#1A90B0" stroke-width="1.5"/>
<path d="M3.75844 4.12245L4.00719 3.4149L3.75844 4.12245ZM3.65891 3.29246C3.26815 3.15507 2.84 3.36048 2.70261 3.75124C2.56523 4.14201 2.77063 4.57016 3.1614 4.70754L3.65891 3.29246ZM6.85794 5.76398L7.47717 5.34082L7.47717 5.34082L6.85794 5.76398ZM8.59378 19.4482L8.04951 19.9642L8.04951 19.9642L8.59378 19.4482ZM28.2872 13.177L29.0218 13.3284L29.0227 13.3238L28.2872 13.177ZM27.6208 16.41L28.3554 16.5614V16.5614L27.6208 16.41ZM28.3895 8.92944L27.795 9.38675L28.3895 8.92944ZM26.255 20.0672L25.7812 19.4858L26.255 20.0672ZM8.10426 13.0133V9.38448H6.60426V13.0133H8.10426ZM4.00719 3.4149L3.65891 3.29246L3.1614 4.70754L3.50968 4.82999L4.00719 3.4149ZM15.3268 21.4167H22.3973V19.9167H15.3268V21.4167ZM8.10426 9.38448C8.10426 8.43614 8.10528 7.66514 8.03787 7.04233C7.96863 6.40266 7.82119 5.84425 7.47717 5.34082L6.23871 6.18713C6.39101 6.41 6.49174 6.69711 6.54658 7.20375C6.60324 7.72724 6.60426 8.40335 6.60426 9.38448H8.10426ZM3.50968 4.82999C4.39422 5.14098 4.99567 5.35373 5.44249 5.57297C5.86969 5.78259 6.08862 5.96748 6.23871 6.18713L7.47717 5.34082C7.13095 4.83417 6.66785 4.50338 6.10324 4.22634C5.55825 3.95893 4.85811 3.71407 4.00719 3.4149L3.50968 4.82999ZM6.60426 13.0133C6.60426 14.9561 6.62316 16.3295 6.80158 17.3713C6.98928 18.4671 7.35888 19.2358 8.04951 19.9642L9.13804 18.9322C8.67348 18.4422 8.42332 17.9545 8.28006 17.118C8.12752 16.2275 8.10426 14.9926 8.10426 13.0133H6.60426ZM15.3268 19.9167C13.4452 19.9167 12.1135 19.9149 11.1043 19.7718C10.121 19.6323 9.55499 19.372 9.13804 18.9322L8.04951 19.9642C8.78777 20.7429 9.72898 21.0918 10.8937 21.2569C12.0326 21.4184 13.4899 21.4167 15.3268 21.4167V19.9167ZM7.35426 8.91H23.5286V7.41H7.35426V8.91ZM27.5526 13.0256L26.8863 16.2586L28.3554 16.5614L29.0217 13.3284L27.5526 13.0256ZM23.5286 8.91C24.6658 8.91 25.6863 8.911 26.4962 9.00154C26.8993 9.0466 27.2151 9.11053 27.4476 9.1922C27.686 9.27597 27.771 9.35554 27.795 9.38675L28.9839 8.47214C28.712 8.11863 28.3223 7.90966 27.9448 7.77702C27.5613 7.64228 27.1202 7.56194 26.6629 7.51082C25.752 7.409 24.638 7.41 23.5286 7.41V8.91ZM29.0227 13.3238C29.2498 12.1861 29.4368 11.2573 29.4824 10.5184C29.5291 9.76327 29.4398 9.06471 28.9839 8.47214L27.795 9.38675C27.9311 9.56362 28.0221 9.82946 27.9853 10.426C27.9475 11.0389 27.7874 11.8492 27.5517 13.0302L29.0227 13.3238ZM22.3973 21.4167C23.4192 21.4167 24.2535 21.418 24.9219 21.3362C25.6107 21.2519 26.2103 21.0711 26.7288 20.6486L25.7812 19.4858C25.564 19.6628 25.2755 19.7817 24.7397 19.8473C24.1835 19.9154 23.4568 19.9167 22.3973 19.9167V21.4167ZM26.8863 16.2586C26.6724 17.2962 26.5244 18.0077 26.3455 18.5387C26.1731 19.0502 25.9984 19.3088 25.7812 19.4858L26.7288 20.6486C27.2472 20.2261 27.5453 19.6753 27.7669 19.0177C27.982 18.3796 28.1491 17.5622 28.3554 16.5614L26.8863 16.2586Z" fill="#1A90B0"/>
<path d="M15.4102 14.4L16.934 16L20.7435 12" stroke="#1A90B0" stroke-width="1.5" stroke-linecap="round" stroke-linejoin="round"/>
</svg>
