<svg width="33" height="32" viewBox="0 0 33 32" fill="none" xmlns="http://www.w3.org/2000/svg">
<g clip-path="url(#clip0_2025_84)">
<path d="M2.91016 18.6667C2.91016 13.6384 2.91016 11.1242 4.47225 9.5621C6.03435 8 8.54851 8 13.5768 8H18.9102C23.9385 8 26.4526 8 28.0147 9.5621C29.5768 11.1242 29.5768 13.6384 29.5768 18.6667C29.5768 23.695 29.5768 26.2091 28.0147 27.7712C26.4526 29.3333 23.9385 29.3333 18.9102 29.3333H13.5768C8.54851 29.3333 6.03435 29.3333 4.47225 27.7712C2.91016 26.2091 2.91016 23.695 2.91016 18.6667Z" stroke="#1A90B0" stroke-width="1.5"/>
<path d="M21.5768 8.00033C21.5768 5.48617 21.5768 4.22909 20.7958 3.44804C20.0147 2.66699 18.7576 2.66699 16.2435 2.66699C13.7293 2.66699 12.4723 2.66699 11.6912 3.44804C10.9102 4.22909 10.9102 5.48617 10.9102 8.00033" stroke="#1A90B0" stroke-width="1.5"/>
<path d="M16.2448 23.1108C17.7176 23.1108 18.9115 22.1159 18.9115 20.8886C18.9115 19.6613 17.7176 18.6663 16.2448 18.6663C14.772 18.6663 13.5781 17.6714 13.5781 16.4441C13.5781 15.2168 14.772 14.2219 16.2448 14.2219M16.2448 23.1108C14.772 23.1108 13.5781 22.1159 13.5781 20.8886M16.2448 23.1108V23.9997M16.2448 13.333V14.2219M16.2448 14.2219C17.7176 14.2219 18.9115 15.2168 18.9115 16.4441" stroke="#1A90B0" stroke-width="1.5" stroke-linecap="round"/>
</g>
<defs>
<clipPath id="clip0_2025_84">
<rect width="32" height="32" fill="white" transform="translate(0.244141)"/>
</clipPath>
</defs>
</svg>
