<svg width="33" height="32" viewBox="0 0 33 32" fill="none" xmlns="http://www.w3.org/2000/svg">
<path d="M30.0768 29.333L3.41016 29.333" stroke="#1A90B0" stroke-width="1.5" stroke-linecap="round"/>
<path d="M4.74414 29.3334V15.1297C4.74414 13.9871 5.23273 12.8991 6.08669 12.14L14.0867 5.02892C15.6022 3.68177 17.8861 3.68177 19.4016 5.02892L27.4016 12.14C28.2555 12.8991 28.7441 13.9871 28.7441 15.1297V29.3334" stroke="#1A90B0" stroke-width="1.5" stroke-linecap="round"/>
<path d="M14.0781 12H19.4115" stroke="#1A90B0" stroke-width="1.5" stroke-linecap="round"/>
<path d="M12.7441 20.667H20.7441" stroke="#1A90B0" stroke-width="1.5" stroke-linecap="round"/>
<path d="M12.7441 24.667H20.7441" stroke="#1A90B0" stroke-width="1.5" stroke-linecap="round"/>
<path d="M24.7441 29.3333V21.3333C24.7441 18.8192 24.7441 17.5621 23.9631 16.781C23.182 16 21.925 16 19.4108 16H14.0775C11.5633 16 10.3062 16 9.52519 16.781C8.74414 17.5621 8.74414 18.8192 8.74414 21.3333V29.3333" stroke="#1A90B0" stroke-width="1.5"/>
</svg>
