<svg width="27" height="28" viewBox="0 0 27 28" fill="none" xmlns="http://www.w3.org/2000/svg">
<path d="M10.7859 3.18768C11.5377 2.54697 11.9137 2.22662 12.3067 2.03876C13.2158 1.60427 14.2726 1.60427 15.1816 2.03876C15.5747 2.22662 15.9506 2.54697 16.7024 3.18768C17.0016 3.44268 17.1512 3.57018 17.311 3.67728C17.6773 3.92278 18.0887 4.09317 18.5213 4.17858C18.71 4.21583 18.9059 4.23147 19.2978 4.26275C20.2825 4.34132 20.7748 4.38061 21.1856 4.52569C22.1356 4.86126 22.8829 5.60853 23.2185 6.55857C23.3636 6.96933 23.4028 7.46166 23.4814 8.44633C23.5127 8.83824 23.5283 9.03419 23.5656 9.2229C23.651 9.6555 23.8214 10.0669 24.0669 10.4331C24.174 10.5929 24.3015 10.7425 24.5565 11.0418C25.1972 11.7936 25.5175 12.1695 25.7054 12.5626C26.1399 13.4716 26.1399 14.5284 25.7054 15.4375C25.5175 15.8305 25.1972 16.2064 24.5565 16.9583C24.3015 17.2575 24.174 17.4071 24.0669 17.5669C23.8214 17.9332 23.651 18.3445 23.5656 18.7771C23.5283 18.9658 23.5127 19.1618 23.4814 19.5537C23.4028 20.5384 23.3636 21.0307 23.2185 21.4415C22.8829 22.3915 22.1356 23.1388 21.1856 23.4743C20.7748 23.6194 20.2825 23.6587 19.2978 23.7373C18.9059 23.7686 18.71 23.7842 18.5213 23.8215C18.0887 23.9069 17.6773 24.0772 17.311 24.3228C17.1512 24.4298 17.0016 24.5573 16.7024 24.8124C15.9506 25.4531 15.5747 25.7734 15.1816 25.9613C14.2726 26.3958 13.2158 26.3958 12.3067 25.9613C11.9137 25.7734 11.5377 25.4531 10.7859 24.8124C10.4867 24.5573 10.3371 24.4298 10.1773 24.3228C9.81099 24.0772 9.39964 23.9069 8.96704 23.8215C8.77833 23.7842 8.58238 23.7686 8.19047 23.7373C7.2058 23.6587 6.71347 23.6194 6.30271 23.4743C5.35268 23.1388 4.6054 22.3915 4.26983 21.4415C4.12475 21.0307 4.08546 20.5384 4.00689 19.5537C3.97561 19.1618 3.95997 18.9658 3.92272 18.7771C3.83731 18.3445 3.66692 17.9332 3.42142 17.5669C3.31432 17.4071 3.18682 17.2575 2.93182 16.9583C2.29112 16.2064 1.97076 15.8305 1.78291 15.4375C1.34841 14.5284 1.34841 13.4716 1.78291 12.5626C1.97076 12.1695 2.29112 11.7936 2.93182 11.0418C3.18682 10.7425 3.31432 10.5929 3.42142 10.4331C3.66692 10.0669 3.83731 9.6555 3.92272 9.2229C3.95997 9.03419 3.97561 8.83824 4.00689 8.44633C4.08546 7.46166 4.12475 6.96933 4.26983 6.55857C4.6054 5.60854 5.35268 4.86126 6.30271 4.52569C6.71347 4.38061 7.2058 4.34132 8.19047 4.26275C8.58238 4.23147 8.77833 4.21583 8.96704 4.17858C9.39964 4.09317 9.811 3.92278 10.1773 3.67728C10.3371 3.57018 10.4867 3.44268 10.7859 3.18768Z" fill="#F9F9F9" stroke="#F9F9F9" stroke-width="1.5"/>
</svg>
