<svg width="21" height="21" viewBox="0 0 21 21" fill="none" xmlns="http://www.w3.org/2000/svg">
<path fill-rule="evenodd" clip-rule="evenodd" d="M20.4648 10.9736C20.4648 16.4965 15.9877 20.9736 10.4648 20.9736C4.942 20.9736 0.464844 16.4965 0.464844 10.9736C0.464844 5.45079 4.942 0.973633 10.4648 0.973633C15.9877 0.973633 20.4648 5.45079 20.4648 10.9736ZM14.4952 7.9433C14.7881 8.2362 14.7881 8.71107 14.4952 9.00396L9.49517 14.004C9.20228 14.2969 8.72741 14.2969 8.43451 14.004L6.43451 12.004C6.14162 11.7111 6.14162 11.2362 6.43451 10.9433C6.72741 10.6504 7.20228 10.6504 7.49517 10.9433L8.96484 12.413L11.1997 10.1781L13.4345 7.9433C13.7274 7.65041 14.2023 7.65041 14.4952 7.9433Z" fill="#36A19B"/>
</svg>
